<?xml version="1.0" encoding="UTF-8" standalone="no"?><!DOCTYPE svg PUBLIC "-//W3C//DTD SVG 1.1//EN" "http://www.w3.org/Graphics/SVG/1.1/DTD/svg11.dtd"><svg width="100%" height="100%" viewBox="0 0 5384 5384" version="1.1" xmlns="http://www.w3.org/2000/svg" xmlns:xlink="http://www.w3.org/1999/xlink" xml:space="preserve" xmlns:serif="http://www.serif.com/" style="fill-rule:evenodd;clip-rule:evenodd;stroke-linejoin:round;stroke-miterlimit:2;"><g><path d="M931.884,2194.36l-762.348,-313.533l0,-160.746l762.348,-313.533l0,175.069l-588.87,211.675l0,14.324l588.87,211.675l0,175.069Z" style="fill:#b3b3b3;fill-rule:nonzero;"/><path d="M1830.78,2364.65l-5.457,-136.449c-19.407,23.652 -39.419,45.18 -60.038,64.586c-20.619,19.406 -42.754,36.083 -66.405,50.031c-23.651,13.342 -49.122,23.652 -76.411,30.929c-26.684,7.883 -56.399,11.825 -89.147,11.825c-54.579,0 -103.094,-10.916 -145.545,-32.747c-42.451,-21.832 -78.231,-52.761 -107.34,-92.785c-28.502,-40.632 -50.334,-89.753 -65.495,-147.365c-15.161,-57.612 -22.742,-121.894 -22.742,-192.848c0,-84.901 11.826,-158.28 35.477,-220.137c24.258,-62.463 57.612,-114.01 100.062,-154.642c42.451,-41.238 92.786,-71.56 151.004,-90.966c58.218,-20.012 121.591,-30.018 190.118,-30.018c23.045,-0 46.09,1.516 69.134,4.548c23.651,3.032 44.574,6.974 62.767,11.825l-0,-361.134l221.956,0l0,1285.35l-191.938,0Zm-405.707,-454.829c-0,50.941 3.335,94.605 10.006,130.991c7.277,35.78 17.587,65.192 30.929,88.237c13.948,23.044 30.928,40.025 50.94,50.941c20.013,10.309 42.754,15.464 68.225,15.464c37.599,-0 73.379,-15.161 107.339,-45.483c33.961,-30.322 70.044,-71.863 108.25,-124.623l-0,-403.889c-17.587,-6.67 -39.419,-12.128 -65.496,-16.373c-25.47,-4.246 -51.244,-6.368 -77.321,-6.368c-35.779,-0 -67.921,7.277 -96.423,21.832c-28.503,14.554 -53.064,35.173 -73.683,61.857c-20.012,26.683 -35.476,59.431 -46.392,98.243c-10.916,38.205 -16.374,81.262 -16.374,129.171Z" style="fill:#fff;fill-rule:nonzero;"/><path d="M2817.76,1187.56c-0,20.013 -3.639,38.813 -10.916,56.399c-7.277,17.587 -17.587,33.051 -30.929,46.393c-12.735,12.735 -27.896,23.044 -45.483,30.928c-17.586,7.277 -36.689,10.916 -57.308,10.916c-20.619,0 -40.025,-3.639 -58.218,-10.916c-17.587,-7.884 -33.051,-18.193 -46.393,-30.928c-12.735,-13.342 -22.741,-28.806 -30.018,-46.393c-7.278,-17.586 -10.916,-36.386 -10.916,-56.399c-0,-20.012 3.638,-38.812 10.916,-56.398c7.277,-17.587 17.283,-33.051 30.018,-46.393c13.342,-13.342 28.806,-23.651 46.393,-30.928c18.193,-7.884 37.599,-11.826 58.218,-11.826c20.619,0 39.722,3.942 57.308,11.826c17.587,7.277 32.748,17.586 45.483,30.928c13.342,13.342 23.652,28.806 30.929,46.393c7.277,17.586 10.916,36.386 10.916,56.398Zm-245.608,425.72l-261.072,0l0,-172.835l488.487,0l-0,751.378l266.529,0l0,172.835l-786.854,0l-0,-172.835l292.91,0l-0,-578.543Z" style="fill:#fff;fill-rule:nonzero;"/><path d="M3814.74,2364.65l-255.614,0l-366.592,-924.213l247.427,0l191.938,523.964l57.308,169.196l56.399,-161.919l193.757,-531.241l238.331,0l-362.954,924.213Z" style="fill:#fff;fill-rule:nonzero;"/><path d="M4439.02,2194.36l0,-175.069l557.039,-211.675l0,-14.324l-557.039,-211.675l0,-175.069l762.348,313.533l0,160.746l-762.348,313.533Z" style="fill:#b2b2b2;fill-rule:nonzero;"/><g><path d="M1709.25,4227.63l0,-37.259l180.709,-61.479l-20.492,42.849l-0,-773.137l20.492,39.123l-191.887,-31.671l0,-40.985l389.363,-98.738l16.767,24.218l-3.726,134.135l0,745.192l-20.493,-44.712l180.709,65.205l0,37.259l-551.442,0Zm258.955,-1097.3c-39.123,0 -74.52,-14.904 -102.464,-42.849c-27.945,-27.944 -40.986,-63.341 -40.986,-102.463c0,-39.123 13.041,-72.657 40.986,-100.601c27.944,-27.945 63.341,-42.849 102.464,-42.849c39.122,0 70.793,14.904 98.738,42.849c27.944,27.944 40.985,61.478 40.985,100.601c0,39.122 -13.041,74.519 -40.985,102.463c-27.945,27.945 -59.616,42.849 -98.738,42.849Z" style="fill:#fff;fill-rule:nonzero;"/></g><g><path d="M2674.27,4259.3c-67.067,-0 -130.408,-9.315 -191.887,-29.808c-59.615,-18.63 -102.463,-42.848 -128.545,-74.519l14.904,-206.791l61.478,0l33.534,102.464c14.904,44.712 40.985,80.108 76.382,108.053c37.259,27.945 80.108,40.986 126.682,40.986c57.753,-0 102.464,-16.767 137.861,-48.438c35.397,-33.534 54.026,-74.519 54.026,-121.094c0,-27.944 -9.314,-50.3 -27.944,-67.067c-18.63,-16.767 -42.849,-31.671 -74.519,-44.711c-29.808,-13.041 -61.479,-27.945 -96.875,-40.986c-37.26,-14.904 -74.52,-31.671 -113.642,-50.3c-39.123,-18.63 -74.519,-40.986 -106.19,-68.931c-31.671,-27.944 -55.889,-59.615 -76.382,-98.738c-18.63,-39.122 -27.945,-85.697 -27.945,-139.723c0,-50.301 14.904,-93.149 46.575,-132.272c31.67,-39.122 72.656,-68.93 126.682,-89.423c54.027,-22.356 113.642,-33.533 180.709,-33.533c50.301,-0 102.464,7.452 154.628,22.355c54.026,13.041 98.738,31.671 134.134,52.164l0,219.831l-63.341,0l-35.397,-104.326c-13.041,-39.123 -37.259,-70.794 -70.793,-95.012c-31.671,-24.219 -68.93,-35.397 -111.779,-35.397c-46.574,-0 -87.56,14.904 -119.231,44.711c-31.67,27.945 -46.574,63.342 -46.574,106.19c-0,27.945 9.315,50.301 26.082,67.068c18.629,16.766 42.848,31.67 72.656,44.711c29.808,13.041 61.478,26.082 95.012,40.986c48.437,20.492 96.875,42.848 143.449,70.793c46.575,27.945 87.56,63.341 119.231,109.916c31.671,44.711 48.438,104.327 48.438,176.983c-0,54.026 -16.767,100.601 -48.438,143.449c-31.671,40.986 -74.519,72.657 -128.546,96.875c-54.026,22.356 -115.504,33.534 -184.435,33.534Z" style="fill:#fff;fill-rule:nonzero;"/></g><g><path d="M3136.29,4227.63l-0,-37.259l180.709,-61.479l-20.493,42.849l0,-773.137l20.493,39.123l-191.887,-31.671l0,-40.985l389.363,-98.738l16.767,24.218l-3.726,134.135l-0,745.192l-20.493,-44.712l180.709,65.205l0,37.259l-551.442,0Zm258.954,-1097.3c-39.122,0 -74.519,-14.904 -102.464,-42.849c-27.944,-27.944 -40.985,-63.341 -40.985,-102.463c-0,-39.123 13.041,-72.657 40.985,-100.601c27.945,-27.945 63.342,-42.849 102.464,-42.849c39.123,0 70.793,14.904 98.738,42.849c27.945,27.944 40.986,61.478 40.986,100.601c-0,39.122 -13.041,74.519 -40.986,102.463c-27.945,27.945 -59.615,42.849 -98.738,42.849Z" style="fill:#fff;fill-rule:nonzero;"/></g></g></svg>