<?xml version="1.0" encoding="UTF-8" standalone="no"?><!DOCTYPE svg PUBLIC "-//W3C//DTD SVG 1.1//EN" "http://www.w3.org/Graphics/SVG/1.1/DTD/svg11.dtd"><svg width="100%" height="100%" viewBox="0 0 33334 18750" version="1.1" xmlns="http://www.w3.org/2000/svg" xmlns:xlink="http://www.w3.org/1999/xlink" xml:space="preserve" xmlns:serif="http://www.serif.com/" style="fill-rule:evenodd;clip-rule:evenodd;stroke-linejoin:round;stroke-miterlimit:2;"><g><g><clipPath id="_clip1"><rect x="1206.64" y="6258.69" width="30920.1" height="6232.64"/></clipPath><g clip-path="url(#_clip1)"><path d="M4518.93,11670.5l-3312.28,-1362.25l0,-698.413l3312.28,-1362.25l-0,760.647l-2558.54,919.692l-0,62.235l2558.54,919.692l-0,760.648Z" style="fill:#b3b3b3;fill-rule:nonzero;"/><path d="M8294.44,12410.4l-23.714,-592.847c-84.316,102.761 -171.267,196.299 -260.852,280.615c-89.586,84.316 -185.759,156.775 -288.519,217.377c-102.76,57.967 -213.425,102.76 -331.995,134.379c-115.934,34.253 -245.043,51.38 -387.326,51.38c-237.139,-0 -447.929,-47.428 -632.37,-142.284c-184.442,-94.855 -339.899,-229.234 -466.373,-403.136c-123.84,-176.536 -218.695,-389.961 -284.567,-640.274c-65.872,-250.314 -98.808,-529.61 -98.808,-837.891c0,-368.882 51.38,-687.702 154.14,-956.46c105.395,-271.392 250.314,-495.356 434.755,-671.893c184.441,-179.171 403.136,-310.915 656.084,-395.231c252.948,-86.951 528.292,-130.427 826.033,-130.427c100.126,0 200.251,6.588 300.376,19.762c102.76,13.174 193.664,30.301 272.71,51.38l-0,-1569.07l964.364,-0l0,5584.62l-833.938,0Zm-1762.73,-1976.16c0,221.329 14.492,411.04 43.476,569.133c31.618,155.458 76.411,283.249 134.378,383.374c60.603,100.126 134.379,173.902 221.33,221.33c86.951,44.793 185.759,67.189 296.424,67.189c163.362,0 318.819,-65.872 466.373,-197.616c147.553,-131.743 304.328,-312.232 470.325,-541.466l-0,-1754.83c-76.412,-28.983 -171.267,-52.697 -284.567,-71.141c-110.665,-18.444 -222.647,-27.666 -335.946,-27.666c-155.458,-0 -295.106,31.618 -418.946,94.855c-123.839,63.237 -230.551,152.823 -320.137,268.757c-86.951,115.935 -154.14,258.218 -201.568,426.85c-47.428,165.997 -71.142,353.074 -71.142,561.229Z" style="fill:#fff;fill-rule:nonzero;"/><path d="M12582.7,7296.08c0,86.951 -15.809,168.632 -47.428,245.043c-31.618,76.412 -76.411,143.601 -134.378,201.568c-55.333,55.333 -121.205,100.126 -197.616,134.379c-76.411,31.619 -159.41,47.428 -248.996,47.428c-89.586,-0 -173.902,-15.809 -252.948,-47.428c-76.411,-34.253 -143.601,-79.046 -201.568,-134.379c-55.332,-57.967 -98.808,-125.156 -130.426,-201.568c-31.619,-76.411 -47.428,-158.092 -47.428,-245.043c0,-86.951 15.809,-168.632 47.428,-245.043c31.618,-76.412 75.094,-143.601 130.426,-201.568c57.967,-57.968 125.157,-102.761 201.568,-134.379c79.046,-34.253 163.362,-51.38 252.948,-51.38c89.586,-0 172.585,17.127 248.996,51.38c76.411,31.618 142.283,76.411 197.616,134.379c57.967,57.967 102.76,125.156 134.378,201.568c31.619,76.411 47.428,158.092 47.428,245.043Zm-1067.12,1849.68l-1134.31,-0l-0,-750.94l2122.39,0l-0,3264.61l1158.03,-0l-0,750.939l-3418.75,0l-0,-750.939l1272.64,-0l0,-2513.67Z" style="fill:#fff;fill-rule:nonzero;"/><path d="M16914.4,12410.4l-1110.6,0l-1592.78,-4015.55l1075.03,0l833.939,2276.53l248.995,735.13l245.044,-703.512l841.842,-2308.15l1035.51,0l-1576.97,4015.55Z" style="fill:#fff;fill-rule:nonzero;"/><path d="M19494.3,11670.5l0,-760.648l2420.24,-919.692l-0,-62.235l-2420.24,-919.692l0,-760.647l3312.28,1362.25l-0,698.413l-3312.28,1362.25Z" style="fill:#b2b2b2;fill-rule:nonzero;"/><g><path d="M23514.4,12410.4l-0,-161.886l785.151,-267.114l-89.038,186.17l-0,-3359.15l89.038,169.981l-833.717,-137.604l-0,-178.075l1691.72,-429l72.849,105.227l-16.188,582.792l-0,3237.74l-89.038,-194.264l785.151,283.302l-0,161.886l-2395.92,0Zm1125.11,-4767.57c-169.981,0 -323.774,-64.754 -445.189,-186.169c-121.415,-121.415 -178.075,-275.208 -178.075,-445.189c-0,-169.981 56.66,-315.679 178.075,-437.094c121.415,-121.415 275.208,-186.17 445.189,-186.17c169.981,0 307.585,64.755 429,186.17c121.415,121.415 178.075,267.113 178.075,437.094c0,169.981 -56.66,323.774 -178.075,445.189c-121.415,121.415 -259.019,186.169 -429,186.169Z" style="fill:#fff;fill-rule:nonzero;"/></g><g><path d="M27707.3,12548c-291.396,0 -566.603,-40.472 -833.716,-129.509c-259.019,-80.944 -445.189,-186.17 -558.51,-323.774l64.755,-898.471l267.113,-0l145.698,445.188c64.755,194.264 178.076,348.057 331.868,469.472c161.887,121.415 348.057,178.075 550.415,178.075c250.924,0 445.189,-72.849 598.981,-210.452c153.792,-145.699 234.736,-323.774 234.736,-526.132c-0,-121.415 -40.472,-218.548 -121.415,-291.397c-80.944,-72.849 -186.17,-137.603 -323.774,-194.264c-129.509,-56.66 -267.113,-121.415 -420.905,-178.075c-161.887,-64.755 -323.774,-137.604 -493.755,-218.547c-169.981,-80.944 -323.773,-178.076 -461.377,-299.491c-137.604,-121.415 -242.83,-259.019 -331.868,-429c-80.943,-169.981 -121.415,-372.339 -121.415,-607.075c-0,-218.547 64.755,-404.717 202.358,-574.698c137.604,-169.981 315.68,-299.49 550.415,-388.528c234.736,-97.132 493.755,-145.698 785.151,-145.698c218.547,-0 445.189,32.377 671.83,97.132c234.736,56.66 429,137.604 582.792,226.641l0,955.132l-275.207,0l-153.793,-453.283c-56.66,-169.981 -161.886,-307.585 -307.584,-412.811c-137.604,-105.226 -299.491,-153.792 -485.661,-153.792c-202.358,-0 -380.433,64.754 -518.037,194.264c-137.604,121.415 -202.359,275.207 -202.359,461.377c0,121.415 40.472,218.547 113.321,291.396c80.943,72.849 186.17,137.604 315.679,194.264c129.51,56.661 267.113,113.321 412.811,178.076c210.453,89.037 420.906,186.169 623.264,307.584c202.359,121.416 380.434,275.208 518.038,477.566c137.604,194.265 210.453,453.283 210.453,768.962c-0,234.736 -72.849,437.095 -210.453,623.264c-137.604,178.076 -323.773,315.68 -558.509,420.906c-234.736,97.132 -501.849,145.698 -801.34,145.698Z" style="fill:#fff;fill-rule:nonzero;"/></g><g><path d="M29714.5,12410.4l-0,-161.886l785.151,-267.114l-89.038,186.17l-0,-3359.15l89.038,169.981l-833.717,-137.604l-0,-178.075l1691.72,-429l72.849,105.227l-16.188,582.792l-0,3237.74l-89.038,-194.264l785.151,283.302l-0,161.886l-2395.92,0Zm1125.11,-4767.57c-169.981,0 -323.774,-64.754 -445.189,-186.169c-121.415,-121.415 -178.075,-275.208 -178.075,-445.189c-0,-169.981 56.66,-315.679 178.075,-437.094c121.415,-121.415 275.208,-186.17 445.189,-186.17c169.981,0 307.585,64.755 429,186.17c121.415,121.415 178.075,267.113 178.075,437.094c0,169.981 -56.66,323.774 -178.075,445.189c-121.415,121.415 -259.019,186.169 -429,186.169Z" style="fill:#fff;fill-rule:nonzero;"/></g></g></g></g></svg>