<?xml version="1.0" encoding="UTF-8" standalone="no"?><!DOCTYPE svg PUBLIC "-//W3C//DTD SVG 1.1//EN" "http://www.w3.org/Graphics/SVG/1.1/DTD/svg11.dtd"><svg width="100%" height="100%" viewBox="0 0 8000 4500" version="1.1" xmlns="http://www.w3.org/2000/svg" xmlns:xlink="http://www.w3.org/1999/xlink" xml:space="preserve" style="fill-rule:evenodd;clip-rule:evenodd;stroke-linejoin:round;stroke-miterlimit:2;"><g id="Ebene1"></g><g transform="matrix(5.66475,0,0,5.66475,-781.73,335.385)"><clipPath id="_clip1"><rect x="189.121" y="205.958" width="1310" height="264.06"/></clipPath><g clip-path="url(#_clip1)"><text x="175.059px" y="466.588px" style="font-family:'CascadiaMonoRoman-Regular', 'Cascadia Mono', monospace;font-size:300px;fill:#b3b3b3;">&lt;</text><text x="350.84px" y="466.588px" style="font-family:'CascadiaMonoRoman-Regular', 'Cascadia Mono', monospace;font-size:342.935px;fill:#fff;">div</text><text x="953.655px" y="466.588px" style="font-family:'CascadiaMonoRoman-Regular', 'Cascadia Mono', monospace;font-size:300px;fill:#b2b2b2;">&gt;</text><g transform="matrix(342.935,0,0,342.935,1129.44,466.588)"><path d="M0.014,-0l0,-0.02l0.097,-0.033l-0.011,0.023l0,-0.415l0.011,0.021l-0.103,-0.017l0,-0.022l0.209,-0.053l0.009,0.013l-0.002,0.072l0,0.4l-0.011,-0.024l0.097,0.035l0,0.02l-0.296,0Zm0.139,-0.589c-0.021,0 -0.04,-0.008 -0.055,-0.023c-0.015,-0.015 -0.022,-0.034 -0.022,-0.055c0,-0.021 0.007,-0.039 0.022,-0.054c0.015,-0.015 0.034,-0.023 0.055,-0.023c0.021,0 0.038,0.008 0.053,0.023c0.015,0.015 0.022,0.033 0.022,0.054c0,0.021 -0.007,0.04 -0.022,0.055c-0.015,0.015 -0.032,0.023 -0.053,0.023Z" style="fill:#fff;fill-rule:nonzero;"/></g><g transform="matrix(342.935,0,0,342.935,1235.75,466.588)"><path d="M0.222,0.017c-0.036,0 -0.07,-0.005 -0.103,-0.016c-0.032,-0.01 -0.055,-0.023 -0.069,-0.04l0.008,-0.111l0.033,0l0.018,0.055c0.008,0.024 0.022,0.043 0.041,0.058c0.02,0.015 0.043,0.022 0.068,0.022c0.031,0 0.055,-0.009 0.074,-0.026c0.019,-0.018 0.029,-0.04 0.029,-0.065c0,-0.015 -0.005,-0.027 -0.015,-0.036c-0.01,-0.009 -0.023,-0.017 -0.04,-0.024c-0.016,-0.007 -0.033,-0.015 -0.052,-0.022c-0.02,-0.008 -0.04,-0.017 -0.061,-0.027c-0.021,-0.01 -0.04,-0.022 -0.057,-0.037c-0.017,-0.015 -0.03,-0.032 -0.041,-0.053c-0.01,-0.021 -0.015,-0.046 -0.015,-0.075c-0,-0.027 0.008,-0.05 0.025,-0.071c0.017,-0.021 0.039,-0.037 0.068,-0.048c0.029,-0.012 0.061,-0.018 0.097,-0.018c0.027,0 0.055,0.004 0.083,0.012c0.029,0.007 0.053,0.017 0.072,0.028l-0,0.118l-0.034,0l-0.019,-0.056c-0.007,-0.021 -0.02,-0.038 -0.038,-0.051c-0.017,-0.013 -0.037,-0.019 -0.06,-0.019c-0.025,-0 -0.047,0.008 -0.064,0.024c-0.017,0.015 -0.025,0.034 -0.025,0.057c-0,0.015 0.005,0.027 0.014,0.036c0.01,0.009 0.023,0.017 0.039,0.024c0.016,0.007 0.033,0.014 0.051,0.022c0.026,0.011 0.052,0.023 0.077,0.038c0.025,0.015 0.047,0.034 0.064,0.059c0.017,0.024 0.026,0.056 0.026,0.095c-0,0.029 -0.009,0.054 -0.026,0.077c-0.017,0.022 -0.04,0.039 -0.069,0.052c-0.029,0.012 -0.062,0.018 -0.099,0.018Z" style="fill:#fff;fill-rule:nonzero;"/></g><g transform="matrix(342.935,0,0,342.935,1392.12,466.588)"><path d="M0.014,-0l0,-0.02l0.097,-0.033l-0.011,0.023l0,-0.415l0.011,0.021l-0.103,-0.017l0,-0.022l0.209,-0.053l0.009,0.013l-0.002,0.072l0,0.4l-0.011,-0.024l0.097,0.035l0,0.02l-0.296,0Zm0.139,-0.589c-0.021,0 -0.04,-0.008 -0.055,-0.023c-0.015,-0.015 -0.022,-0.034 -0.022,-0.055c0,-0.021 0.007,-0.039 0.022,-0.054c0.015,-0.015 0.034,-0.023 0.055,-0.023c0.021,0 0.038,0.008 0.053,0.023c0.015,0.015 0.022,0.033 0.022,0.054c0,0.021 -0.007,0.04 -0.022,0.055c-0.015,0.015 -0.032,0.023 -0.053,0.023Z" style="fill:#fff;fill-rule:nonzero;"/></g><g transform="matrix(342.935,0,0,342.935,1498.43,466.588)"></g></g></g></svg>