<svg height="20" viewBox="0 0 20 20" width="20" xmlns="http://www.w3.org/2000/svg"><path d="m3.20218 8.73464c-.28462.30093-.2714.77562.02953 1.06025.30094.28461.77563.27141 1.06025-.02953l4.95511-5.23904v12.72368c0 .4142.33579.75.75000121.75.41422879 0 .75002879-.3358.75002879-.75v-12.72595l4.9572 5.24131c.2847.30094.7593.31414 1.0603.02953.3009-.28463.3141-.75932.0295-1.06025l-6.0694-6.41722c-.1573-.1663-.3574-.2663-.5662-.30001-.052-.0114-.106-.01741-.16142879-.01741-.05759121 0-.11367121.00649-.16754121.01878-.20579.03499-.4027.13454-.55791.29864z" fill="#212121"/></svg>