<svg height="56" viewBox="0 0 56 56" width="56" xmlns="http://www.w3.org/2000/svg"><path fill="#fff" d="m27.944431 17.0584061c.44298 0 .809982.13284 1.2207078.5011632l8.0604922 7.7722368c.3516.3516.5626.7266.5626 1.2422 0 .9609-.7032 1.6406-1.6876 1.6406-.4687 0-.9609-.1875-1.289-.5625l-3.5625-3.7734-1.5938-1.6641.1641 3.4922v18.0624756c0 .9843-.8672 1.8047-1.875 1.8047s-1.8516-.8204-1.8516-1.8047v-18.0624756l.1407-3.4922-1.5938 1.6641-3.5391 3.7734c-.3281.375-.8203.5625-1.2656.5625-.9844 0-1.7109-.6797-1.7109-1.6406 0-.5156.1875-.8906.539-1.2422l7.9219-7.6406c.4688-.4688.8906-.6328 1.3594-.6328zm4.7367651-16.28774303c8.506473 0 15.4023318 6.89585882 15.4023318 15.40233173 0 .4838691-.0223123.9625268-.0659643 1.4350005 4.3034735 1.0141835 7.5065674 4.8792041 7.5065674 9.4923474 0 5.3859592-4.3661826 9.7521418-9.7521417 9.7521418h-11.2478583v-3.75h11.2478583c3.3148913 0 6.0021417-2.6872504 6.0021417-6.0021418 0-2.7988396-1.9331372-5.2098987-4.6167519-5.8423361l-3.1739053-.7479824.299993-3.2470228c.0332908-.3603289.0500611-.723874.0500611-1.0900066 0-6.4354051-5.2169266-11.65233173-11.6523318-11.65233173-3.9942405 0-7.6383493 2.02142262-9.7774498 5.31037215l-1.5244688 2.34392948-2.6815174-.7921329c-.4547119-.134324-.9301362-.2034395-1.4188957-.2034395-2.6853145 0-4.8755719 2.1195912-4.988989 4.7769904l-.0040463.2932379.0929695 3.1505917-2.99688051.6911685c-2.96144269.6829956-5.09938867 3.3370476-5.09938867 6.4213589 0 3.6394155 2.95032925 6.5897448 6.58974478 6.5897448h10.6518569l-.0000001 3.75h-10.6518568c-5.71048334 0-10.33974478-4.6292615-10.33974478-10.3397448 0-4.9081618 3.4198235-9.0175809 8.00665088-10.0754378l-.00391852-.2643071c0-4.8289583 3.91464422-8.74360253 8.74360262-8.74360253.8619077 0 1.6946875.12471163 2.4812789.35707443 2.7467125-4.22317638 7.5077561-7.01580363 12.9210528-7.01580363z" transform="translate(0 3)"/></svg>