<svg height="56" viewBox="0 0 56 56" width="56" xmlns="http://www.w3.org/2000/svg"><path fill="#fff" d="m29.956181 36.8524845v6.7214972c0 1.1045695-.8954305 2-2 2s-2-.8954305-2-2v-6.7214972h-15.0839068c-5.71048334 0-10.33974478-4.6292615-10.33974478-10.3397448 0-4.9081618 3.4198235-9.0175809 8.00665088-10.0754378-.00260621-.0877836-.00391852-.1758921-.00391852-.2643071 0-4.8289583 3.91464422-8.74360253 8.74360262-8.74360253.8619077 0 1.6946875.12471163 2.4812789.35707443 2.7467125-4.22317638 7.5077561-7.01580363 12.9210528-7.01580363 8.506473 0 15.4023318 6.89585882 15.4023318 15.40233173 0 .4838691-.0223123.9625268-.0659643 1.4350005 4.3034735 1.0141835 7.5065674 4.8792041 7.5065674 9.4923474 0 5.3859592-4.3661826 9.7521418-9.7521417 9.7521418zm-2.01175-19.7940784c-.4688 0-.8906.164-1.3594.6328l-7.9219 7.6406c-.3515.3516-.539.7266-.539 1.2422 0 .9609.7265 1.6406 1.7109 1.6406.4453 0 .9375-.1875 1.2656-.5625l3.5391-3.7734 1.5938-1.6641-.1407 3.4922v9.980167c0 .9843.8438 1.8047 1.8516 1.8047s1.875-.8204 1.875-1.8047v-9.980167l-.1641-3.4922 1.5938 1.6641 3.5625 3.7734c.3281.375.8203.5625 1.289.5625.9844 0 1.6876-.6797 1.6876-1.6406 0-.5156-.211-.8906-.5626-1.2422l-7.9218-7.6406c-.4688-.4688-.8672-.6328-1.3594-.6328z" fill-rule="evenodd" transform="translate(0 3)"/></svg>