<svg fill="none" height="16" viewBox="0 0 16 16" width="16" xmlns="http://www.w3.org/2000/svg"><g fill="#fff"><path d="m8 7c.27614 0 .5.22386.5.5v3c0 .2761-.22386.5-.5.5s-.5-.2239-.5-.5v-3c0-.27614.22386-.5.5-.5z"/><path d="m8.00001 6.24907c.41368 0 .74904-.33536.74904-.74904s-.33536-.74903-.74904-.74903-.74903.33535-.74903.74903.33535.74904.74903.74904z"/><path d="m2 8c0-3.31371 2.68629-6 6-6 3.3137 0 6 2.68629 6 6 0 3.3137-2.6863 6-6 6-3.31371 0-6-2.6863-6-6zm6-5c-2.76142 0-5 2.23858-5 5 0 2.7614 2.23858 5 5 5 2.7614 0 5-2.2386 5-5 0-2.76142-2.2386-5-5-5z"/></g></svg>