<svg width="100%" height="100%" viewBox="0 0 84 84" version="1.1" xmlns="http://www.w3.org/2000/svg"><path d="M35.417,12.5c12.656,0 22.916,10.26 22.916,22.917c0,5.201 -1.732,9.998 -4.652,13.844l17.279,17.279c1.22,1.221 1.22,3.199 -0,4.42c-1.11,1.109 -2.846,1.21 -4.069,0.302l-0.351,-0.302l-17.279,-17.279c-3.846,2.92 -8.643,4.652 -13.844,4.652c-12.657,0 -22.917,-10.26 -22.917,-22.916c0,-12.657 10.26,-22.917 22.917,-22.917Zm-0,6.25c-9.205,-0 -16.667,7.462 -16.667,16.667c0,9.204 7.462,16.666 16.667,16.666c9.204,0 16.666,-7.462 16.666,-16.666c0,-9.205 -7.462,-16.667 -16.666,-16.667Z" style="fill:#fff;fill-rule:nonzero;"/><ellipse cx="35.383" cy="35.489" rx="13.538" ry="13.608" style="fill:#fff;"/></svg>