<svg fill="none" height="16" viewBox="0 0 16 16" width="16" xmlns="http://www.w3.org/2000/svg"><g fill="#fff"><path d="m8.99949 2.50001c0-.20103-.12041-.38252-.30563-.46067-.18523-.07815-.39925-.03777-.54325.10251l-2.92672 2.85088h-1.72438c-.82843 0-1.5.67158-1.5 1.5v2.98899c0 .82838.67157 1.49998 1.5 1.49998h1.72314l2.92644 2.875c.14368.1411.35804.1823.54379.1044.18574-.0779.30661-.2597.30661-.4611z"/><path d="m10.1464 6.14646c.1953-.19526.5119-.19526.7072 0l1.1464 1.14645 1.1464-1.14645c.1953-.19526.5119-.19526.7072 0 .1952.19526.1952.51185 0 .70711l-1.1465 1.14644 1.1465 1.14645c.1952.19526.1952.51185 0 .70711-.1953.19523-.5119.19523-.7072 0l-1.1464-1.14645-1.1464 1.14645c-.1953.19523-.5119.19523-.7072 0-.19522-.19526-.19522-.51185 0-.70711l1.1465-1.14645-1.1465-1.14644c-.19522-.19526-.19522-.51185 0-.70711z"/></g></svg>